<?xml version="1.0" encoding="UTF-8" standalone="no"?>
<!DOCTYPE svg PUBLIC "-//W3C//DTD SVG 1.1//EN" "http://www.w3.org/Graphics/SVG/1.1/DTD/svg11.dtd">
<svg width="100%" height="100%" viewBox="0 0 500 500" version="1.1" xmlns="http://www.w3.org/2000/svg" xmlns:xlink="http://www.w3.org/1999/xlink" xml:space="preserve" xmlns:serif="http://www.serif.com/" style="fill-rule:evenodd;clip-rule:evenodd;stroke-linecap:square;stroke-linejoin:round;stroke-miterlimit:1.5;">
    <g id="ellipse_4" transform="matrix(1.06316,0,0,1.42355,41.1971,-37.1896)">
        <ellipse cx="196.397" cy="201.742" rx="94.059" ry="70.247" style="fill:rgb(235,235,235);stroke:black;stroke-width:3.18px;"/>
    </g>
    <g id="text_4" transform="matrix(1,0,0,1,126.86,173.862)">
        <g transform="matrix(50,0,0,50,208.5,93.8013)">
        </g>
        <text x="27.762px" y="93.801px" style="font-family:'ArialMT', 'Arial', sans-serif;font-size:50px;">146.520</text>
    </g>
    <g id="ellipse_3" transform="matrix(1.06316,0,0,1.42355,-106.803,110.81)">
        <ellipse cx="196.397" cy="201.742" rx="94.059" ry="70.247" style="fill:rgb(235,235,235);stroke:black;stroke-width:3.18px;"/>
    </g>
    <g id="text_2" transform="matrix(1,0,0,1,-18.7787,322.292)">
        <g transform="matrix(50,0,0,50,208.5,93.8013)">
        </g>
        <text x="27.762px" y="93.801px" style="font-family:'ArialMT', 'Arial', sans-serif;font-size:50px;">146.520</text>
    </g>
    <g id="ellipse_2" transform="matrix(1.06316,0,0,1.42355,189.197,110.81)">
        <ellipse cx="196.397" cy="201.742" rx="94.059" ry="70.247" style="fill:rgb(235,235,235);stroke:black;stroke-width:3.18px;"/>
    </g>
    <g id="text_21" serif:id="text_2" transform="matrix(1,0,0,1,277.431,322.292)">
        <g transform="matrix(50,0,0,50,208.5,93.8013)">
        </g>
        <text x="27.762px" y="93.801px" style="font-family:'ArialMT', 'Arial', sans-serif;font-size:50px;">146.520</text>
    </g>
    <g id="ellipse_1" transform="matrix(1.06316,0,0,1.42355,189.197,-185.19)">
        <ellipse cx="196.397" cy="201.742" rx="94.059" ry="70.247" style="fill:rgb(235,235,235);stroke:black;stroke-width:3.18px;"/>
    </g>
    <g id="text_1" transform="matrix(1,0,0,1,277.431,25.4328)">
        <g transform="matrix(50,0,0,50,208.5,93.8013)">
        </g>
        <text x="27.762px" y="93.801px" style="font-family:'ArialMT', 'Arial', sans-serif;font-size:50px;">146.520</text>
    </g>
    <g id="ellipse_0" transform="matrix(1.06316,0,0,1.42355,-106.803,-185.19)">
        <ellipse cx="196.397" cy="201.742" rx="94.059" ry="70.247" style="fill:rgb(235,235,235);stroke:black;stroke-width:3.18px;"/>
    </g>
    <g id="text_0" transform="matrix(1,0,0,1,-18.6796,25.4328)">
        <g transform="matrix(50,0,0,50,208.5,93.8013)">
        </g>
        <text x="27.762px" y="93.801px" style="font-family:'ArialMT', 'Arial', sans-serif;font-size:50px;">146.520</text>
    </g>
</svg>
