<?xml version="1.0" encoding="UTF-8" standalone="no"?>
<!DOCTYPE svg PUBLIC "-//W3C//DTD SVG 1.1//EN" "http://www.w3.org/Graphics/SVG/1.1/DTD/svg11.dtd">
<svg width="100%" height="100%" viewBox="0 0 113 113" version="1.1" xmlns="http://www.w3.org/2000/svg" xmlns:xlink="http://www.w3.org/1999/xlink" xml:space="preserve" xmlns:serif="http://www.serif.com/" style="fill-rule:evenodd;clip-rule:evenodd;stroke-linejoin:round;stroke-miterlimit:2;">
    <rect id="Artboard1" x="0" y="0" width="113" height="113" style="fill:none;"/>
    <clipPath id="_clip1">
        <rect id="Artboard11" serif:id="Artboard1" x="0" y="0" width="113" height="113"/>
    </clipPath>
    <g clip-path="url(#_clip1)">
        <g id="ellipse" transform="matrix(8.65325,0,0,7.17884,-375.909,-222.528)">
            <path d="M49.971,30.998C53.574,30.998 56.5,34.524 56.5,38.868C56.5,43.212 53.574,46.738 49.971,46.738C46.367,46.738 43.441,43.212 43.441,38.868C43.441,34.524 46.367,30.998 49.971,30.998ZM49.971,31.288C46.5,31.288 43.682,34.685 43.682,38.868C43.682,43.052 46.5,46.448 49.971,46.448C53.441,46.448 56.259,43.052 56.259,38.868C56.259,34.685 53.441,31.288 49.971,31.288Z"/>
        </g>
    </g>
</svg>
