<?xml version="1.0" encoding="UTF-8" standalone="no"?>
<!DOCTYPE svg PUBLIC "-//W3C//DTD SVG 1.1//EN" "http://www.w3.org/Graphics/SVG/1.1/DTD/svg11.dtd">
<svg width="100%" height="100%" viewBox="0 0 100 100" version="1.1" xmlns="http://www.w3.org/2000/svg" xmlns:xlink="http://www.w3.org/1999/xlink" xml:space="preserve" xmlns:serif="http://www.serif.com/" style="fill-rule:evenodd;clip-rule:evenodd;stroke-linejoin:round;stroke-miterlimit:2;">
    <g id="ellipse" transform="matrix(6.65413,0,0,6.65413,-166.629,-187.196)">
        <path d="M32.556,28.132C36.703,28.132 40.07,31.499 40.07,35.646C40.07,39.794 36.703,43.161 32.556,43.161C28.408,43.161 25.041,39.794 25.041,35.646C25.041,31.499 28.408,28.132 32.556,28.132ZM32.556,28.758C28.754,28.758 25.668,31.845 25.668,35.646C25.668,39.448 28.754,42.534 32.556,42.534C36.357,42.534 39.443,39.448 39.443,35.646C39.443,31.845 36.357,28.758 32.556,28.758Z" style="fill:rgb(204,0,153);"/>
    </g>
</svg>
